<mxfile host="app.diagrams.net" modified="2024-04-09T02:48:57.252Z" agent="Mozilla/5.0 (X11; Linux x86_64) AppleWebKit/537.36 (KHTML, like Gecko) Chrome/122.0.0.0 Safari/537.36" etag="VzjckacHFNhdiHNyD3Kf" version="24.2.2" type="github">
  <diagram name="第 1 页" id="EyvoLrxKdqtRImHTJter">
    <mxGraphModel dx="941" dy="570" grid="0" gridSize="10" guides="1" tooltips="1" connect="1" arrows="1" fold="1" page="0" pageScale="1" pageWidth="827" pageHeight="1169" math="0" shadow="0">
      <root>
        <mxCell id="0" />
        <mxCell id="1" parent="0" />
      </root>
    </mxGraphModel>
  </diagram>
</mxfile>
